<?xml version="1.0" standalone="no"?>
<!DOCTYPE svg PUBLIC "-//W3C//DTD SVG 20010904//EN"
 "http://www.w3.org/TR/2001/REC-SVG-20010904/DTD/svg10.dtd">
<svg version="1.0" xmlns="http://www.w3.org/2000/svg"
 width="16.000000pt" height="16.000000pt" viewBox="0 0 16.000000 16.000000"
 preserveAspectRatio="xMidYMid meet">
<metadata>
Created by potrace 1.11, written by Peter Selinger 2001-2013
</metadata>
<g transform="translate(0.000000,16.000000) scale(0.006250,-0.006250)"
fill="#000000" stroke="none">
<path d="M0 1280 l0 -1280 1280 0 1280 0 0 1280 0 1280 -1280 0 -1280 0 0
-1280z m970 444 c113 -32 206 -116 251 -231 20 -50 23 -76 23 -193 0 -149 -13
-199 -75 -293 -135 -204 -500 -223 -673 -36 -65 70 -93 138 -109 260 -19 152
26 309 115 399 105 105 291 142 468 94z m1006 -5 c43 -13 78 -33 114 -65 57
-52 99 -121 78 -129 -7 -3 -32 -11 -55 -19 l-41 -14 -29 46 c-79 127 -308 151
-431 46 -143 -122 -150 -416 -14 -557 56 -58 105 -80 193 -85 121 -7 205 32
270 126 l34 50 47 -24 47 -24 -22 -37 c-12 -21 -41 -57 -65 -80 -174 -170
-516 -140 -642 57 -132 206 -90 541 84 659 115 79 279 97 432 50z"/>
<path d="M720 1641 c-153 -47 -233 -190 -217 -386 12 -142 66 -233 169 -284
54 -27 71 -31 148 -31 77 0 94 3 149 31 66 33 98 67 133 145 20 43 23 65 23
179 0 122 -2 133 -28 187 -35 72 -104 133 -170 153 -53 16 -164 19 -207 6z"/>
</g>
</svg>
